<svg width="24" height="24" viewBox="0 0 24 24" fill="#DC3131" xmlns="http://www.w3.org/2000/svg">
<path d="M17.2695 2.00586C18.0142 2.0425 18.7482 2.20715 19.4385 2.49316C20.2269 2.8199 20.9434 3.29878 21.5469 3.90234L21.7676 4.13379C22.2684 4.68616 22.671 5.32145 22.957 6.01172C23.2838 6.80048 23.4521 7.64621 23.4521 8.5C23.4521 9.35377 23.2838 10.1995 22.957 10.9883C22.6711 11.6783 22.2682 12.313 21.7676 12.8652L21.5469 13.0967L20.4873 14.1572L12.707 21.9365C12.3165 22.327 11.6835 22.327 11.293 21.9365L3.5127 14.1572L2.45312 13.0967C1.23402 11.8775 0.548862 10.2241 0.548828 8.5C0.54886 6.77579 1.23393 5.12154 2.45312 3.90234C3.67225 2.68339 5.32582 1.99911 7.0498 1.99902C8.77398 1.99902 10.4282 2.68321 11.6475 3.90234L12 4.25488L12.3525 3.90234C12.9561 3.29855 13.6732 2.81997 14.4619 2.49316C15.2507 2.16633 16.0964 1.99805 16.9502 1.99805L17.2695 2.00586ZM16.9502 3.99805C16.3591 3.99805 15.7736 4.11455 15.2275 4.34082C14.6816 4.56703 14.1854 4.89849 13.7676 5.31641V5.31738L12.707 6.37695C12.3165 6.76739 11.6835 6.76745 11.293 6.37695L10.2334 5.31738C9.38925 4.47327 8.24359 3.99902 7.0498 3.99902C5.85613 3.99911 4.71126 4.47334 3.86719 5.31738C3.0232 6.16149 2.54886 7.30633 2.54883 8.5C2.54886 9.6937 3.02316 10.8385 3.86719 11.6826L4.92676 12.7432L12 19.8154L19.0732 12.7432L20.1328 11.6826L20.2861 11.5225C20.6327 11.1401 20.9114 10.7004 21.1094 10.2227C21.3356 9.67662 21.4521 9.09104 21.4521 8.5C21.4521 7.90895 21.3356 7.32338 21.1094 6.77734C20.8831 6.23128 20.5509 5.73525 20.1328 5.31738V5.31641C19.715 4.89849 19.2188 4.56705 18.6729 4.34082C18.1952 4.14289 17.6872 4.02933 17.1719 4.00391L16.9502 3.99805Z"/>
</svg>
